<mxfile host="Electron" agent="Mozilla/5.0 (Windows NT 10.0; Win64; x64) AppleWebKit/537.36 (KHTML, like Gecko) draw.io/24.7.17 Chrome/128.0.6613.36 Electron/32.0.1 Safari/537.36" version="24.7.17">
  <diagram id="C5RBs43oDa-KdzZeNtuy" name="Page-1">
    <mxGraphModel dx="1418" dy="820" grid="1" gridSize="10" guides="1" tooltips="1" connect="1" arrows="1" fold="1" page="1" pageScale="1" pageWidth="827" pageHeight="1169" math="0" shadow="0">
      <root>
        <mxCell id="WIyWlLk6GJQsqaUBKTNV-0" />
        <mxCell id="WIyWlLk6GJQsqaUBKTNV-1" parent="WIyWlLk6GJQsqaUBKTNV-0" />
        <mxCell id="07RiMtDWBdM3D548nCMq-5" value="" style="edgeStyle=orthogonalEdgeStyle;rounded=0;orthogonalLoop=1;jettySize=auto;html=1;" edge="1" parent="WIyWlLk6GJQsqaUBKTNV-1" source="07RiMtDWBdM3D548nCMq-0" target="07RiMtDWBdM3D548nCMq-4">
          <mxGeometry relative="1" as="geometry" />
        </mxCell>
        <mxCell id="07RiMtDWBdM3D548nCMq-0" value="bắt đầu" style="ellipse;whiteSpace=wrap;html=1;" vertex="1" parent="WIyWlLk6GJQsqaUBKTNV-1">
          <mxGeometry x="354" y="100" width="120" height="80" as="geometry" />
        </mxCell>
        <mxCell id="07RiMtDWBdM3D548nCMq-7" value="" style="edgeStyle=orthogonalEdgeStyle;rounded=0;orthogonalLoop=1;jettySize=auto;html=1;" edge="1" parent="WIyWlLk6GJQsqaUBKTNV-1" source="07RiMtDWBdM3D548nCMq-4" target="07RiMtDWBdM3D548nCMq-6">
          <mxGeometry relative="1" as="geometry" />
        </mxCell>
        <mxCell id="07RiMtDWBdM3D548nCMq-4" value="nhập a, b, phép toán" style="shape=parallelogram;perimeter=parallelogramPerimeter;whiteSpace=wrap;html=1;fixedSize=1;" vertex="1" parent="WIyWlLk6GJQsqaUBKTNV-1">
          <mxGeometry x="341" y="270" width="146" height="60" as="geometry" />
        </mxCell>
        <mxCell id="07RiMtDWBdM3D548nCMq-13" value="đúng" style="edgeStyle=orthogonalEdgeStyle;rounded=0;orthogonalLoop=1;jettySize=auto;html=1;" edge="1" parent="WIyWlLk6GJQsqaUBKTNV-1" source="07RiMtDWBdM3D548nCMq-6" target="07RiMtDWBdM3D548nCMq-12">
          <mxGeometry relative="1" as="geometry" />
        </mxCell>
        <mxCell id="07RiMtDWBdM3D548nCMq-17" value="sai" style="edgeStyle=orthogonalEdgeStyle;rounded=0;orthogonalLoop=1;jettySize=auto;html=1;" edge="1" parent="WIyWlLk6GJQsqaUBKTNV-1" source="07RiMtDWBdM3D548nCMq-6" target="07RiMtDWBdM3D548nCMq-16">
          <mxGeometry relative="1" as="geometry" />
        </mxCell>
        <mxCell id="07RiMtDWBdM3D548nCMq-6" value="phép toán = +" style="rhombus;whiteSpace=wrap;html=1;" vertex="1" parent="WIyWlLk6GJQsqaUBKTNV-1">
          <mxGeometry x="367" y="390" width="94" height="80" as="geometry" />
        </mxCell>
        <mxCell id="07RiMtDWBdM3D548nCMq-37" style="edgeStyle=orthogonalEdgeStyle;rounded=0;orthogonalLoop=1;jettySize=auto;html=1;entryX=1;entryY=0.5;entryDx=0;entryDy=0;exitX=1;exitY=0.5;exitDx=0;exitDy=0;" edge="1" parent="WIyWlLk6GJQsqaUBKTNV-1" source="07RiMtDWBdM3D548nCMq-12" target="07RiMtDWBdM3D548nCMq-33">
          <mxGeometry relative="1" as="geometry">
            <Array as="points">
              <mxPoint x="680" y="430" />
              <mxPoint x="680" y="970" />
              <mxPoint x="464" y="970" />
            </Array>
          </mxGeometry>
        </mxCell>
        <mxCell id="07RiMtDWBdM3D548nCMq-12" value="a+b= kết quả" style="whiteSpace=wrap;html=1;" vertex="1" parent="WIyWlLk6GJQsqaUBKTNV-1">
          <mxGeometry x="528" y="400" width="132" height="60" as="geometry" />
        </mxCell>
        <mxCell id="07RiMtDWBdM3D548nCMq-19" value="đúng" style="edgeStyle=orthogonalEdgeStyle;rounded=0;orthogonalLoop=1;jettySize=auto;html=1;" edge="1" parent="WIyWlLk6GJQsqaUBKTNV-1" source="07RiMtDWBdM3D548nCMq-16" target="07RiMtDWBdM3D548nCMq-18">
          <mxGeometry relative="1" as="geometry" />
        </mxCell>
        <mxCell id="07RiMtDWBdM3D548nCMq-21" value="sai" style="edgeStyle=orthogonalEdgeStyle;rounded=0;orthogonalLoop=1;jettySize=auto;html=1;" edge="1" parent="WIyWlLk6GJQsqaUBKTNV-1" source="07RiMtDWBdM3D548nCMq-16" target="07RiMtDWBdM3D548nCMq-20">
          <mxGeometry relative="1" as="geometry" />
        </mxCell>
        <mxCell id="07RiMtDWBdM3D548nCMq-16" value="phép toán = -" style="rhombus;whiteSpace=wrap;html=1;" vertex="1" parent="WIyWlLk6GJQsqaUBKTNV-1">
          <mxGeometry x="367" y="520" width="94" height="80" as="geometry" />
        </mxCell>
        <mxCell id="07RiMtDWBdM3D548nCMq-36" style="edgeStyle=orthogonalEdgeStyle;rounded=0;orthogonalLoop=1;jettySize=auto;html=1;entryX=1;entryY=0.5;entryDx=0;entryDy=0;exitX=1;exitY=0.5;exitDx=0;exitDy=0;" edge="1" parent="WIyWlLk6GJQsqaUBKTNV-1" source="07RiMtDWBdM3D548nCMq-18" target="07RiMtDWBdM3D548nCMq-33">
          <mxGeometry relative="1" as="geometry">
            <Array as="points">
              <mxPoint x="680" y="560" />
              <mxPoint x="680" y="970" />
              <mxPoint x="464" y="970" />
            </Array>
          </mxGeometry>
        </mxCell>
        <mxCell id="07RiMtDWBdM3D548nCMq-18" value="a-b= kết quả" style="whiteSpace=wrap;html=1;" vertex="1" parent="WIyWlLk6GJQsqaUBKTNV-1">
          <mxGeometry x="528" y="530" width="132" height="60" as="geometry" />
        </mxCell>
        <mxCell id="07RiMtDWBdM3D548nCMq-23" value="đúng" style="edgeStyle=orthogonalEdgeStyle;rounded=0;orthogonalLoop=1;jettySize=auto;html=1;" edge="1" parent="WIyWlLk6GJQsqaUBKTNV-1" source="07RiMtDWBdM3D548nCMq-20" target="07RiMtDWBdM3D548nCMq-22">
          <mxGeometry relative="1" as="geometry" />
        </mxCell>
        <mxCell id="07RiMtDWBdM3D548nCMq-25" value="sai" style="edgeStyle=orthogonalEdgeStyle;rounded=0;orthogonalLoop=1;jettySize=auto;html=1;" edge="1" parent="WIyWlLk6GJQsqaUBKTNV-1" source="07RiMtDWBdM3D548nCMq-20" target="07RiMtDWBdM3D548nCMq-24">
          <mxGeometry relative="1" as="geometry" />
        </mxCell>
        <mxCell id="07RiMtDWBdM3D548nCMq-20" value="phép toán = *" style="rhombus;whiteSpace=wrap;html=1;" vertex="1" parent="WIyWlLk6GJQsqaUBKTNV-1">
          <mxGeometry x="369" y="640" width="89" height="80" as="geometry" />
        </mxCell>
        <mxCell id="07RiMtDWBdM3D548nCMq-35" style="edgeStyle=orthogonalEdgeStyle;rounded=0;orthogonalLoop=1;jettySize=auto;html=1;exitX=1;exitY=0.5;exitDx=0;exitDy=0;entryX=1;entryY=0.75;entryDx=0;entryDy=0;" edge="1" parent="WIyWlLk6GJQsqaUBKTNV-1" source="07RiMtDWBdM3D548nCMq-22" target="07RiMtDWBdM3D548nCMq-33">
          <mxGeometry relative="1" as="geometry">
            <mxPoint x="1072" y="740" as="sourcePoint" />
            <mxPoint x="730" y="1030" as="targetPoint" />
            <Array as="points">
              <mxPoint x="680" y="680" />
              <mxPoint x="680" y="973" />
              <mxPoint x="466" y="973" />
            </Array>
          </mxGeometry>
        </mxCell>
        <mxCell id="07RiMtDWBdM3D548nCMq-22" value="a*b= kết quả" style="whiteSpace=wrap;html=1;" vertex="1" parent="WIyWlLk6GJQsqaUBKTNV-1">
          <mxGeometry x="528" y="650" width="132" height="60" as="geometry" />
        </mxCell>
        <mxCell id="07RiMtDWBdM3D548nCMq-27" value="đúng" style="edgeStyle=orthogonalEdgeStyle;rounded=0;orthogonalLoop=1;jettySize=auto;html=1;" edge="1" parent="WIyWlLk6GJQsqaUBKTNV-1" source="07RiMtDWBdM3D548nCMq-24" target="07RiMtDWBdM3D548nCMq-26">
          <mxGeometry relative="1" as="geometry" />
        </mxCell>
        <mxCell id="07RiMtDWBdM3D548nCMq-24" value="phép toán = /" style="rhombus;whiteSpace=wrap;html=1;" vertex="1" parent="WIyWlLk6GJQsqaUBKTNV-1">
          <mxGeometry x="369" y="770" width="89" height="80" as="geometry" />
        </mxCell>
        <mxCell id="07RiMtDWBdM3D548nCMq-34" style="edgeStyle=orthogonalEdgeStyle;rounded=0;orthogonalLoop=1;jettySize=auto;html=1;entryX=1;entryY=0.5;entryDx=0;entryDy=0;exitX=0.5;exitY=1;exitDx=0;exitDy=0;" edge="1" parent="WIyWlLk6GJQsqaUBKTNV-1" source="07RiMtDWBdM3D548nCMq-26" target="07RiMtDWBdM3D548nCMq-33">
          <mxGeometry relative="1" as="geometry">
            <mxPoint x="610" y="850" as="sourcePoint" />
            <mxPoint x="480" y="940" as="targetPoint" />
          </mxGeometry>
        </mxCell>
        <mxCell id="07RiMtDWBdM3D548nCMq-26" value="a/b+ kết quả" style="whiteSpace=wrap;html=1;" vertex="1" parent="WIyWlLk6GJQsqaUBKTNV-1">
          <mxGeometry x="528" y="780" width="132" height="60" as="geometry" />
        </mxCell>
        <mxCell id="07RiMtDWBdM3D548nCMq-39" value="" style="edgeStyle=orthogonalEdgeStyle;rounded=0;orthogonalLoop=1;jettySize=auto;html=1;" edge="1" parent="WIyWlLk6GJQsqaUBKTNV-1" source="07RiMtDWBdM3D548nCMq-33" target="07RiMtDWBdM3D548nCMq-38">
          <mxGeometry relative="1" as="geometry" />
        </mxCell>
        <mxCell id="07RiMtDWBdM3D548nCMq-33" value="kết quả" style="shape=parallelogram;perimeter=parallelogramPerimeter;whiteSpace=wrap;html=1;fixedSize=1;" vertex="1" parent="WIyWlLk6GJQsqaUBKTNV-1">
          <mxGeometry x="329" y="920" width="170" height="60" as="geometry" />
        </mxCell>
        <mxCell id="07RiMtDWBdM3D548nCMq-38" value="kết thúc" style="ellipse;whiteSpace=wrap;html=1;" vertex="1" parent="WIyWlLk6GJQsqaUBKTNV-1">
          <mxGeometry x="354" y="1030" width="120" height="80" as="geometry" />
        </mxCell>
      </root>
    </mxGraphModel>
  </diagram>
</mxfile>
